<svg width="18" height="18" viewBox="0 0 18 18" fill="none" xmlns="http://www.w3.org/2000/svg">
<g id="angle-small-down 1">
<path id="Vector" d="M14.0325 6.15749C13.9628 6.08719 13.8798 6.03139 13.7884 5.99332C13.6971 5.95524 13.599 5.93564 13.5 5.93564C13.401 5.93564 13.303 5.95524 13.2116 5.99332C13.1202 6.03139 13.0372 6.08719 12.9675 6.15749L9.53251 9.59249C9.46279 9.66278 9.37984 9.71858 9.28845 9.75666C9.19705 9.79473 9.09902 9.81434 9.00001 9.81434C8.90101 9.81434 8.80298 9.79473 8.71158 9.75666C8.62019 9.71858 8.53724 9.66278 8.46751 9.59249L5.03251 6.15749C4.96279 6.08719 4.87984 6.03139 4.78845 5.99332C4.69705 5.95524 4.59902 5.93564 4.50001 5.93564C4.40101 5.93564 4.30298 5.95524 4.21158 5.99332C4.12019 6.03139 4.03724 6.08719 3.96751 6.15749C3.82783 6.29801 3.74942 6.4881 3.74942 6.68624C3.74942 6.88438 3.82783 7.07447 3.96751 7.21499L7.41001 10.6575C7.83189 11.0788 8.40376 11.3155 9.00001 11.3155C9.59627 11.3155 10.1681 11.0788 10.59 10.6575L14.0325 7.21499C14.1722 7.07447 14.2506 6.88438 14.2506 6.68624C14.2506 6.4881 14.1722 6.29801 14.0325 6.15749Z" fill="white"/>
</g>
</svg>
